<?xml version="1.0" encoding="UTF-8"?>
<svg width="793.7" height="793.7" version="1.1" viewBox="0 0 210 210" xmlns="http://www.w3.org/2000/svg">
 <g transform="translate(0,-87)">
  <rect x="7.1477" y="94.71" width="198.06" height="198.06" ry=".33409" style="paint-order:markers fill stroke"/>
  <circle transform="rotate(-15)" cx="-20.154" cy="147.06" r="4.4099" fill="#fff" style="paint-order:markers fill stroke"/>
  <rect transform="rotate(-15)" x="-24.965" y="121.89" width="9.6217" height="8.0181" fill="#fff" style="paint-order:markers fill stroke"/>
  <rect transform="rotate(-15)" x="-24.965" y="132.47" width="9.6217" height="8.0181" fill="#fff" style="paint-order:markers fill stroke"/>
  <rect transform="rotate(-15)" x="-12.572" y="116.27" width="14.165" height="46.772" ry="0" fill="#241c22" style="paint-order:markers fill stroke"/>
  <circle transform="rotate(-15)" cx="-5.4898" cy="123.78" r="4.4099" fill="#fff" style="paint-order:markers fill stroke"/>
  <circle transform="rotate(-15)" cx="-5.4898" cy="155.53" r="4.4099" fill="#fff" style="paint-order:markers fill stroke"/>
  <rect transform="rotate(-15)" x="-10.301" y="130.36" width="9.6217" height="8.0181" fill="#fff" style="paint-order:markers fill stroke"/>
  <rect transform="rotate(-15)" x="-10.301" y="140.94" width="9.6217" height="8.0181" fill="#fff" style="paint-order:markers fill stroke"/>
  <g transform="translate(-91.126 -157.69)">
   <rect transform="rotate(15)" x="318.87" y="177.77" width="14.165" height="46.772" ry="0" fill="#c83771" style="paint-order:markers fill stroke"/>
   <circle transform="rotate(15)" cx="325.95" cy="185.28" r="4.4099" fill="#fff" style="paint-order:markers fill stroke"/>
   <circle transform="rotate(15)" cx="325.95" cy="217.03" r="4.4099" fill="#fff" style="paint-order:markers fill stroke"/>
   <rect transform="rotate(15)" x="321.14" y="191.86" width="9.6217" height="8.0181" fill="#fff" style="paint-order:markers fill stroke"/>
   <rect transform="rotate(15)" x="321.14" y="202.44" width="9.6217" height="8.0181" fill="#fff" style="paint-order:markers fill stroke"/>
   <rect transform="rotate(15)" x="334.74" y="177.77" width="14.165" height="46.772" ry="0" fill="#00112b" style="paint-order:markers fill stroke"/>
   <circle transform="rotate(15)" cx="341.83" cy="185.28" r="4.4099" fill="#fff" style="paint-order:markers fill stroke"/>
   <circle transform="rotate(15)" cx="341.83" cy="217.03" r="4.4099" fill="#fff" style="paint-order:markers fill stroke"/>
   <rect transform="rotate(15)" x="337.02" y="191.86" width="9.6217" height="8.0181" fill="#fff" style="paint-order:markers fill stroke"/>
   <rect transform="rotate(15)" x="337.02" y="202.44" width="9.6217" height="8.0181" fill="#fff" style="paint-order:markers fill stroke"/>
   <path transform="matrix(.26458 0 0 .26458 0 87)" d="m1120 681.75-20.996 5.627 20.996 78.357z" fill="#c83771" style="paint-order:markers fill stroke"/>
   <path transform="matrix(.26458 0 0 .26458 0 87)" d="m1120 696.53a16.668 16.668 0 0 0 -3.8906 15.65 16.668 16.668 0 0 0 3.8906 7.0176z" fill="#fff" style="paint-order:markers fill stroke"/>
   <path transform="matrix(.26458 0 0 .26458 0 87)" d="m965.42 651.72c-0.3011-0.0108-0.60028-0.01-0.89844 2e-3 -5.1681 0.19939-9.8046 3.71-11.217 8.9805l-37.439 139.73-40.746-10.918c-6.4867-1.7381-13.108 2.0836-14.846 8.5703s2.0856 13.11 8.5723 14.848l251.15 67.295v-25.098l-180.71-48.422 37.439-139.73c1.7381-6.4867-2.0856-13.108-8.5723-14.846-0.91218-0.24443-1.8272-0.37961-2.7305-0.41211z" fill="#3abc79" style="paint-order:markers fill stroke"/>
  </g>
  <path d="m105.79 265.23-12.185 7.0352 0.31369 0.54311 11.522 19.957h16.248zm-0.45993 1.7167 4.2742 7.4037-10.01 5.779-4.2742-7.4037z" fill="#3abc79" style="paint-order:markers fill stroke"/>
  <path d="m105.44 94.71 10.736 18.596 11.713 6.2182 0.47283-13.253-6.6745-11.561zm21.652 11.875 1e-3 3e-3 -0.38703 10.888-9.6186-5.1061a7.7922 19.209 60 0 1 4.8142 -3.2153l5.1e-4 -5e-4a7.7922 19.209 60 0 1 5.1898 -2.5683z" fill="#3abc79" style="paint-order:markers fill stroke"/>
  <path d="m10.808 231.54c-1.3151 0-2.6299 0.4868-3.6603 1.4567v33.256l16.511-16.511c2.094-2.094 2.094-5.4653 0-7.5592l-9.0713-9.0713c-1.047-1.047-2.4132-1.571-3.7796-1.571z" fill="#3abc79" style="paint-order:markers fill stroke"/>
  <path d="m10.713 235.16c-1.0945 0-2.1891 0.41913-3.0277 1.2578l-0.53795 0.53795v25.325l13.2-13.2c1.6774-1.6774 1.6774-4.3781 0-6.0554l-6.6068-6.6068c-0.83867-0.83868-1.9332-1.2578-3.0277-1.2578z" fill="#fff" style="paint-order:markers fill stroke"/>
  <path d="m15.275 107.51-8.1272 2.1776v22.221l6.5505 24.447 13.682-3.6664z" fill="#c83771" style="paint-order:markers fill stroke"/>
  <path d="m10.546 112.19a4.4099 4.4099 0 0 0 -1.31 0.14728 4.4099 4.4099 0 0 0 -2.0888 1.2599v5.9976a4.4099 4.4099 0 0 0 4.3713 1.2619 4.4099 4.4099 0 0 0 3.1187 -5.4012 4.4099 4.4099 0 0 0 -4.0912 -3.2654z" fill="#fff" style="paint-order:markers fill stroke"/>
  <circle transform="rotate(-15)" cx="-20.154" cy="147.06" r="4.4099" fill="#fff" style="paint-order:markers fill stroke"/>
  <rect transform="rotate(-15)" x="-24.965" y="121.89" width="9.6217" height="8.0181" fill="#fff" style="paint-order:markers fill stroke"/>
  <rect transform="rotate(-15)" x="-24.965" y="132.47" width="9.6217" height="8.0181" fill="#fff" style="paint-order:markers fill stroke"/>
  <path d="m76.927 131.47c-1.3675 0.0528-2.5941 0.98213-2.9678 2.3766l-9.9053 36.969-56.907-15.248v6.6404l74.506 19.964c1.7162 0.45987 3.468-0.5513 3.9279-2.2676 0.45988-1.7163-0.55181-3.468-2.2681-3.9279l-13.064-3.5006 9.9058-36.969c0.45987-1.7163-0.55129-3.468-2.2676-3.9279-0.32179-0.0862-0.64508-0.12071-0.96065-0.10852z" fill="#3abc79" style="paint-order:markers fill stroke"/>
  <path d="m119.48 218.89a4.8348 4.211 75 0 1 1.3203 2.3506 4.8348 4.211 75 0 1 0.1117 0.55014 17.468 9.0458 75 0 1 8.7091 13.69 17.468 9.0458 75 0 1 0.7028 3.3178 21.679 22.459 75 0 1 -8.1061 4.0019 21.679 22.459 75 0 1 -9.0358 0.56634 17.468 9.0458 75 0 1 -1.0354 -3.2036 17.468 9.0458 75 0 1 -0.11005 -14.417c-0.3108 0.0113-0.61999-0.0523-0.90749-0.18767l-32.604 8.7083c0.0478 0.55964-0.13458 1.1342-0.56464 1.5643-0.55907 0.55906-1.363 0.7091-2.0589 0.46058l-15.893 27.527a11.853 10.293 45 0 1 2.5903 11.348l-15.394-15.394a11.853 10.293 45 0 1 8.5761 0.7497l16.143-27.961c-0.64258-0.77776-0.60904-1.919 0.11938-2.6474 0.72878-0.72878 1.8714-0.76289 2.6492-0.11941l32.253-8.6136c-0.18507-0.66365-0.0249-1.4012 0.49894-1.925 0.77408-0.77407 2.0209-0.77491 2.795-8.6e-4l2.2585 2.2585a4.8348 4.211 75 0 1 2.9835 -3.8535 4.8348 4.211 75 0 1 3.9985 1.2299zm-9.8188 5.3768-1.6785-1.6786-31.941 8.5301 1.6786 1.6785zm-35.051 11.008-1.5046-1.5046-15.918 27.571a11.853 10.293 45 0 1 1.6444 1.264z" fill="#3abc79" style="paint-order:markers fill stroke"/>
  <path d="m138.38 205.1h40.114c2.5745 0 4.6472 2.0726 4.6472 4.6472v4.6472c0 2.5745-2.0727 4.6472-4.6472 4.6472h-40.114" fill="#3abc79" style="paint-order:markers fill stroke"/>
  <path d="m178.5 204.56c2.8626 0 5.1839 2.3213 5.1839 5.1839v4.6472c0 2.8626-2.3213 5.1839-5.1839 5.1839h-40.114a0.53677 0.53677 0 1 1 0 -1.0734h40.114c1.4299 0 2.6789-0.71352 3.4141-1.8072h-43.302v-0.15275h43.4c0.0308-0.0505 0.0603-0.10198 0.0889-0.15395h-43.489v-0.15275h43.529v0.0782c0.13912-0.26531 0.24981-0.54814 0.32886-0.84462h-43.858v-0.15395h43.895c0.0114-0.0506 0.0222-0.10142 0.0317-0.15275h-43.927v-0.15394h43.954c8e-3 -0.0505 0.0135-0.10163 0.0192-0.15275h-43.973v-0.15395h43.986c4e-3 -0.0508 7e-3 -0.10173 9e-3 -0.15305h-43.995v-0.15394h43.999v-0.15275h-43.999v-0.15395h43.999v-0.15275h-43.999v-0.15395h43.999v-1.6856h-43.999v-0.15515h43.999v-0.15155h-43.999v-0.15514h43.999v-1.8893c0-0.58288-0.11914-1.1354-0.33366-1.6356h-43.665v-0.15518h43.595c-0.0246-0.0513-0.0503-0.10179-0.077-0.15186h-43.518v-0.15484h43.431c-0.0303-0.0515-0.0619-0.10189-0.0944-0.15186h-43.337v-0.15514h43.231c-0.11663-0.16263-0.24494-0.31606-0.38368-0.45945h-42.847v-0.15274h42.692c-0.73197-0.67984-1.7149-1.0938-2.8034-1.0938h-40.114a0.53677 0.53677 0 1 1 0 -1.0734h31.004z" color="#000000" color-rendering="auto" dominant-baseline="auto" fill="#c83771" image-rendering="auto" shape-rendering="auto" solid-color="#000000" style="font-feature-settings:normal;font-variant-alternates:normal;font-variant-caps:normal;font-variant-ligatures:normal;font-variant-numeric:normal;font-variant-position:normal;isolation:auto;mix-blend-mode:normal;paint-order:markers fill stroke;shape-padding:0;text-decoration-color:#000000;text-decoration-line:none;text-decoration-style:solid;text-indent:0;text-orientation:mixed;text-transform:none;white-space:normal"/>
  <path d="m186.56 220.12h-40.114c-2.5745 0-4.6472 2.0726-4.6472 4.6472v4.6472c0 2.5745 2.0727 4.6472 4.6472 4.6472h40.114" fill="#3abc79" style="paint-order:markers fill stroke"/>
  <path d="m146.45 219.58c-2.8626 0-5.1839 2.3213-5.1839 5.1839v4.6472c0 2.8626 2.3213 5.1839 5.1839 5.1839h40.114a0.53677 0.53677 0 1 0 0 -1.0734h-40.114c-1.4299 0-2.6789-0.71352-3.4141-1.8072h43.302v-0.15275h-43.4c-0.0308-0.0505-0.0603-0.10198-0.089-0.15395h43.489v-0.15275h-43.529v0.0782c-0.13911-0.26532-0.24981-0.54814-0.32886-0.84462h43.858v-0.15395h-43.895c-0.0114-0.0506-0.0222-0.10142-0.0317-0.15275h43.927v-0.15394h-43.954c-7e-3 -0.0505-0.0135-0.10163-0.0192-0.15275h43.973v-0.15395h-43.986c-4e-3 -0.0508-7e-3 -0.10173-9e-3 -0.15305h43.995v-0.15395h-43.999v-0.15275h43.999v-0.15395h-43.999v-0.15275h43.999v-0.15395h-43.999v-1.6856h43.999v-0.15514h-43.999v-0.15155h43.999v-0.15515h-43.999v-1.8893c0-0.58288 0.11914-1.1354 0.33366-1.6356h43.665v-0.15519h-43.595c0.0246-0.0513 0.0504-0.10178 0.077-0.15185h43.518v-0.15482h-43.431c0.0303-0.0515 0.0619-0.1019 0.0944-0.15186h43.337v-0.15514h-43.231c0.11662-0.16263 0.24493-0.31606 0.38367-0.45945h42.847v-0.15274h-42.692c0.73197-0.67984 1.7149-1.0938 2.8034-1.0938h40.114a0.53677 0.53677 0 1 0 0 -1.0734h-31.004z" color="#000000" color-rendering="auto" dominant-baseline="auto" fill="#c83771" image-rendering="auto" shape-rendering="auto" solid-color="#000000" style="font-feature-settings:normal;font-variant-alternates:normal;font-variant-caps:normal;font-variant-ligatures:normal;font-variant-numeric:normal;font-variant-position:normal;isolation:auto;mix-blend-mode:normal;paint-order:markers fill stroke;shape-padding:0;text-decoration-color:#000000;text-decoration-line:none;text-decoration-style:solid;text-indent:0;text-orientation:mixed;text-transform:none;white-space:normal"/>
  <path d="m181.95 204.56c2.8626 0 5.1839-2.3213 5.1839-5.1839v-4.6472c0-2.8626-2.3213-5.1839-5.1839-5.1839h-40.114a0.53677 0.53677 0 1 0 0 1.0734h40.114c1.4299 0 2.679 0.71351 3.4141 1.8072h-43.302v0.15275h43.4c0.0308 0.0505 0.0603 0.10198 0.0889 0.15395h-43.489v0.15274h43.529v-0.0782c0.13912 0.26531 0.24981 0.54814 0.32886 0.84462h-43.858v0.15395h43.895c0.0114 0.0506 0.0222 0.10141 0.0318 0.15275h-43.927v0.15394h43.954c7e-3 0.0505 0.0135 0.10163 0.0192 0.15275h-43.973v0.15395h43.986c4e-3 0.0508 7e-3 0.10173 9e-3 0.15305h-43.995v0.15394h43.999v0.15275h-43.999v0.15395h43.999v0.15274h-43.999v0.15396h43.999v1.6856h-43.999v0.15514h43.999v0.15156h-43.999v0.15514h43.999v1.8893c0 0.58289-0.11914 1.1354-0.33365 1.6356h-43.665v0.15518h43.595c-0.0246 0.0513-0.0504 0.10179-0.077 0.15186h-43.518v0.15484h43.431c-0.0303 0.0515-0.0619 0.10189-0.0944 0.15186h-43.337v0.15514h43.231c-0.11663 0.16263-0.24494 0.31606-0.38367 0.45944h-42.847v0.15275h42.692c-0.73197 0.67983-1.7149 1.0938-2.8034 1.0938h-40.114a0.53677 0.53677 0 1 0 0 1.0734h31.004z" color="#000000" color-rendering="auto" dominant-baseline="auto" fill="#c83771" image-rendering="auto" shape-rendering="auto" solid-color="#000000" style="font-feature-settings:normal;font-variant-alternates:normal;font-variant-caps:normal;font-variant-ligatures:normal;font-variant-numeric:normal;font-variant-position:normal;isolation:auto;mix-blend-mode:normal;paint-order:markers fill stroke;shape-padding:0;text-decoration-color:#000000;text-decoration-line:none;text-decoration-style:solid;text-indent:0;text-orientation:mixed;text-transform:none;white-space:normal"/>
  <path d="m69.226 185.29-0.60614 0.16241-43 11.522-9.0378 9.7044 12.68 3.8867 43.606-11.684zm-0.88907 1.5379 2.9915 11.164-8.2576 2.2126-2.9915-11.164zm-40.187 16.752a19.209 7.7922 75 0 1 1.1376 5.6778l-3e-3 1.9e-4 -10.416-3.192 7.4214-7.969a19.209 7.7922 75 0 1 1.86 5.4824z" fill="#3abc79" style="paint-order:markers fill stroke"/>
  <g transform="translate(-91.126 -157.69)">
   <circle transform="rotate(45)" cx="497.55" cy="96.616" r="1.4647" fill="#fff" style="paint-order:markers fill stroke"/>
   <path transform="matrix(.26458 0 0 .26458 0 87)" d="m1120 1147.8c-0.1517 0.1429-0.3047 0.2833-0.4531 0.4317l-70.715 70.713c-7.9143 7.9143-7.9143 20.658 0 28.572l34.287 34.285c7.9143 7.9143 20.656 7.9143 28.57 0l8.3105-8.3105z" fill="#3abc79" style="paint-order:markers fill stroke"/>
   <path transform="matrix(.26458 0 0 .26458 0 87)" d="m1120 1162.8-54.611 54.611c-6.3396 6.3396-6.3396 16.547 0 22.887l24.971 24.971c6.3396 6.3396 16.547 6.3396 22.887 0l6.7539-6.7539z" fill="#fff" style="paint-order:markers fill stroke"/>
   <circle transform="rotate(45)" cx="497.55" cy="96.616" r="1.4647" fill="#fff" style="paint-order:markers fill stroke"/>
  </g>
 </g>
</svg>
