<?xml version="1.0" encoding="iso-8859-1"?>
<!-- Generator: Adobe Illustrator 19.0.0, SVG Export Plug-In . SVG Version: 6.00 Build 0)  -->
<svg xmlns="http://www.w3.org/2000/svg" xmlns:xlink="http://www.w3.org/1999/xlink" version="1.1" id="Capa_1" x="0px" y="0px" viewBox="0 0 350.373 350.373" style="enable-background:new 0 0 350.373 350.373;" xml:space="preserve" width="512px" height="512px">
<g id="XMLID_786_">
	<path id="XMLID_787_" d="M115,242.718c-9.059,0-16.429,7.37-16.429,16.429s7.37,16.429,16.429,16.429s16.429-7.37,16.429-16.429   S124.059,242.718,115,242.718z" fill="#D80027"/>
	<path id="XMLID_788_" d="M0,339.226h230V11.449H0V339.226z M115,305.576c-25.601,0-46.429-20.828-46.429-46.429   S89.399,212.718,115,212.718s46.429,20.828,46.429,46.429S140.601,305.576,115,305.576z M115,45.099   c37.154,0,67.381,30.227,67.381,67.381S152.154,179.861,115,179.861s-67.381-30.227-67.381-67.381S77.846,45.099,115,45.099z" fill="#D80027"/>
	<path id="XMLID_792_" d="M115,149.861c20.612,0,37.381-16.769,37.381-37.381S135.612,75.099,115,75.099   S77.619,91.868,77.619,112.48S94.388,149.861,115,149.861z" fill="#D80027"/>
	<path id="XMLID_793_" d="M275.533,47.216l-16.336,25.162c5.656,3.672,9.032,9.874,9.032,16.59s-3.376,12.917-9.032,16.589   l16.336,25.162c14.212-9.227,22.696-24.834,22.696-41.751S289.745,56.443,275.533,47.216z" fill="#D80027"/>
	<path id="XMLID_794_" d="M314.254,11.147l-19.377,22.902c16.203,13.71,25.496,33.727,25.496,54.918   c0,21.192-9.293,41.209-25.496,54.919l19.377,22.902c22.954-19.422,36.119-47.786,36.119-77.821   C350.373,58.933,337.208,30.569,314.254,11.147z" fill="#D80027"/>
</g>
<g>
</g>
<g>
</g>
<g>
</g>
<g>
</g>
<g>
</g>
<g>
</g>
<g>
</g>
<g>
</g>
<g>
</g>
<g>
</g>
<g>
</g>
<g>
</g>
<g>
</g>
<g>
</g>
<g>
</g>
</svg>
